<?xml version="1.0" encoding="iso-8859-1"?>
<!-- Uploaded to: SVG Repo, www.svgrepo.com, Generator: SVG Repo Mixer Tools -->
<svg height="800px" width="800px" version="1.1" id="Layer_1" xmlns="http://www.w3.org/2000/svg" xmlns:xlink="http://www.w3.org/1999/xlink" 
	 viewBox="0 0 512 512" xml:space="preserve">
<path style="fill:#AFB9D2;" d="M274.286,283.429H256v-54.857c0-10.099-8.186-18.286-18.286-18.286H64
	c-20.198,0-36.571-16.374-36.571-36.571v-73.143C27.429,80.374,43.802,64,64,64h411.429c5.049,0,9.143,4.094,9.143,9.143l0,0
	c0,5.049-4.094,9.143-9.143,9.143H64c-10.099,0-18.286,8.186-18.286,18.286v73.143C45.714,183.814,53.901,192,64,192h173.714
	c20.198,0,36.571,16.374,36.571,36.571V283.429z"/>
<path style="fill:#FFDC64;" d="M228.571,283.429v210.286c0,10.098,8.187,18.286,18.286,18.286h36.571
	c10.098,0,18.286-8.187,18.286-18.286V283.429H228.571z"/>
<path style="fill:#FFC850;" d="M301.714,320v-36.571h-73.143v210.286c0,10.099,8.186,18.286,18.286,18.286h27.429
	C264.187,512,256,503.813,256,493.714V329.143c0-5.049,4.094-9.143,9.143-9.143H301.714z"/>
<path style="fill:#FFF082;" d="M306.286,301.714H224c-5.049,0-9.143-4.094-9.143-9.143v-9.143c0-5.049,4.094-9.143,9.143-9.143
	h82.286c5.049,0,9.143,4.094,9.143,9.143v9.143C315.429,297.621,311.335,301.714,306.286,301.714z"/>
<path style="fill:#FFDC64;" d="M246.857,292.571v-9.143c0-5.049,4.094-9.143,9.143-9.143h-32c-5.049,0-9.143,4.094-9.143,9.143
	v9.143c0,5.049,4.094,9.143,9.143,9.143h32C250.951,301.714,246.857,297.621,246.857,292.571z"/>
<path style="fill:#FFF082;" d="M438.857,146.286H91.429c-10.099,0-18.286-8.186-18.286-18.286V18.286
	C73.143,8.186,81.329,0,91.429,0h347.429c10.099,0,18.286,8.186,18.286,18.286V128C457.143,138.099,448.957,146.286,438.857,146.286
	z"/>
<g>
	<path style="fill:#FFFCBE;" d="M420.571,48h-18.286c-6.312,0-11.429-5.117-11.429-11.429s5.117-11.429,11.429-11.429h18.286
		c6.312,0,11.429,5.117,11.429,11.429S426.883,48,420.571,48z"/>
	<path style="fill:#FFFCBE;" d="M365.714,48h-91.429c-6.312,0-11.429-5.117-11.429-11.429s5.117-11.429,11.429-11.429h91.429
		c6.312,0,11.429,5.117,11.429,11.429S372.026,48,365.714,48z"/>
</g>
<path style="fill:#FFDC64;" d="M109.714,45.714V0H91.429C81.33,0,73.143,8.186,73.143,18.286V128
	c0,10.098,8.187,18.286,18.286,18.286h347.429c10.098,0,18.286-8.187,18.286-18.286v-18.286H173.714
	C138.368,109.714,109.714,81.061,109.714,45.714z"/>
</svg>